<svg width="800" height="800" viewBox="0 0 800 800" fill="none" xmlns="http://www.w3.org/2000/svg">
<path d="M769.4 388.825C768.2 389.425 695.175 425.537 599.988 453.912V437.5H641L626.6 379.875C676.425 360.125 712.5 303.812 712.5 237.5C712.5 154.787 656.425 87.5 587.5 87.5C562.45 87.5 538.338 96.5375 517.875 113.025C500.775 54.5875 454.463 12.5 400 12.5C345.538 12.5 299.225 54.5875 282.125 113.025C261.663 96.5375 237.55 87.5 212.5 87.5C143.575 87.5 87.5004 154.787 87.5004 237.5C87.5004 303.812 123.575 360.125 173.4 379.875L158.988 437.5H200V453.888C104.838 425.525 31.7879 389.425 30.5879 388.825L19.4004 411.188C21.4379 412.2 34.8629 418.85 56.5004 428.275L84.3379 720.625L224.175 536.05C224.675 538.212 225 540.425 225 542.675V544.825C225 552.762 221.775 560.55 216.163 566.162C205.738 576.575 200 590.438 200 605.175V607.325C200 622.062 205.738 635.925 216.163 646.338C221.775 651.95 225 659.738 225 667.675V669.825C225 677.762 221.775 685.55 216.163 691.162C205.738 701.575 200 715.438 200 730.175V787.5H225V730.175C225 722.238 228.225 714.45 233.838 708.838C244.263 698.425 250 684.562 250 669.825V667.675C250 652.938 244.263 639.075 233.838 628.662C228.225 623.05 225 615.262 225 607.325V605.175C225 597.238 228.225 589.45 233.838 583.838C244.263 573.425 250 559.562 250 544.825V542.675C250 532.088 246.938 522.012 241.413 513.287L255.563 494.6C266.088 496.988 276.75 499.2 287.5 501.2V785.05L400 714.738L512.5 785.05V501.213C525.075 498.875 537.525 496.263 549.775 493.4L561.675 509.113C554.238 518.725 550 530.325 550 542.675V544.825C550 559.562 555.738 573.425 566.163 583.838C571.775 589.45 575 597.238 575 605.175V607.325C575 615.262 571.775 623.05 566.163 628.662C555.738 639.075 550 652.938 550 667.675V669.825C550 684.562 555.738 698.425 566.163 708.838C571.775 714.45 575 722.238 575 730.175V787.5H600V730.175C600 715.438 594.263 701.575 583.838 691.162C578.225 685.55 575 677.762 575 669.825V667.675C575 659.738 578.225 651.95 583.838 646.338C594.263 635.925 600 622.062 600 607.325V605.175C600 590.438 594.263 576.575 583.838 566.162C578.225 560.55 575 552.762 575 544.825V542.675C575 538.4 576 534.2 577.75 530.325L721.913 720.612L749.95 426.188L750 425.413C767.788 417.525 778.775 412.088 780.588 411.188L769.4 388.825ZM566.013 412.5L572.563 386.313C577.475 387.013 582.438 387.5 587.5 387.5C592.563 387.5 597.538 387.025 602.45 386.325L608.988 412.5H566.013ZM548.925 247.962L539.775 297.025L587.5 273.938L635.225 297.025L626.075 247.962L666.038 212.138L610.95 204.775L587.5 161.05L564.063 204.763L518.2 210.9C522.538 195.687 525 179.45 525 162.5C525 155.375 524.438 148.412 523.638 141.537C541.588 122.85 564.15 112.5 587.5 112.5C642.638 112.5 687.5 168.575 687.5 237.5C687.5 306.425 642.638 362.5 587.5 362.5C540.913 362.5 500.75 322.238 490.225 266.038C501.138 252.338 509.913 236.212 515.913 218.362L548.925 247.962ZM601.575 252.975L587.5 246.163L573.425 252.975L576.075 238.725L566.038 229.713L580.05 227.837L587.5 213.95L594.95 227.85L608.963 229.725L598.925 238.738L601.575 252.975ZM400 37.5C455.138 37.5 500 93.575 500 162.5C500 231.425 455.138 287.5 400 287.5C344.863 287.5 300 231.425 300 162.5C300 93.575 344.863 37.5 400 37.5ZM421.488 337.5H378.513L385.05 311.325C389.963 312.025 394.938 312.5 400 312.5C405.063 312.5 410.038 312.025 414.95 311.325L421.488 337.5ZM112.5 237.5C112.5 168.575 157.363 112.5 212.5 112.5C235.85 112.5 258.413 122.85 276.363 141.537C275.563 148.412 275 155.375 275 162.5C275 179.45 277.463 195.688 281.8 210.888L235.938 204.75L212.5 161.05L189.063 204.763L133.975 212.125L173.938 247.95L164.788 297.012L212.5 273.938L260.225 297.025L251.075 247.962L284.088 218.362C290.088 236.212 298.863 252.35 309.775 266.038C299.25 322.238 259.088 362.5 212.5 362.5C157.363 362.5 112.5 306.425 112.5 237.5ZM226.575 252.975L212.5 246.163L198.425 252.975L201.075 238.725L191.038 229.713L205.05 227.837L212.5 213.95L219.95 227.85L233.963 229.725L223.925 238.738L226.575 252.975ZM191.013 412.5L197.55 386.325C202.463 387.025 207.438 387.5 212.5 387.5C217.563 387.5 222.525 387.013 227.438 386.313L233.988 412.5H191.013ZM103.163 654.375L94.3379 561.775L123.538 627.475L103.163 654.375ZM186.3 544.637L178.55 527.2L155.7 537.35L169.05 567.4L140.775 604.725L86.8754 483.45L82.6629 439.288C93.4879 443.7 105.425 448.388 118.325 453.188L146.788 517.325L169.625 507.175L150.8 464.75C174.95 472.963 201.35 481.062 229.063 488.2L186.3 544.637ZM225 461.013V437.5H266.013L251.613 379.888C288.175 365.475 317.588 331.425 330.45 287.063C339.775 294.588 350.025 300.562 360.9 304.875L346.488 362.5H387.5V487.275C333.175 485.8 276.65 475 225 461.013ZM487.5 739.95L400 685.262L312.5 739.95V505.425C320.813 506.687 329.15 507.8 337.5 508.738V682.725L400 651.475L462.5 682.725V562.5H437.5V642.275L400 623.525L362.5 642.275V511.062C375.05 511.975 387.575 512.5 400 512.5C412.425 512.5 424.95 511.975 437.5 511.062V537.5H462.5V508.75C470.85 507.8 479.188 506.688 487.5 505.438V739.95ZM575 461.037C523.363 475.025 466.85 485.813 412.5 487.288V362.5H453.513L439.113 304.875C449.988 300.562 460.225 294.588 469.563 287.063C482.425 331.413 511.85 365.475 548.4 379.888L533.988 437.5H575V461.037ZM703.088 654.388L682.275 626.912L712.1 559.8L703.088 654.388ZM719.688 480.15L665 604.1L636.763 566.825L663.1 507.575L640.25 497.425L619.525 544.063L576.163 486.837C604.488 479.375 631.363 470.95 655.775 462.488L650.1 475.287L672.95 485.437L688.388 450.663C701.3 445.775 713.213 441.025 723.85 436.625L719.688 480.15Z" fill="white"/>
<path d="M352.275 222.025L400 198.937L447.725 222.025L438.575 172.962L478.537 137.137L423.45 129.775L400 86.0498L376.562 129.762L321.475 137.125L361.437 172.95L352.275 222.025ZM392.55 152.85L400 138.95L407.45 152.85L421.462 154.725L411.425 163.737L414.075 177.987L400 171.162L385.925 177.975L388.575 163.725L378.537 154.712L392.55 152.85Z" fill="white"/>
</svg>
