<svg width="800" height="800" viewBox="0 0 800 800" fill="none" xmlns="http://www.w3.org/2000/svg">
<path opacity="0.1" d="M288.533 300C215.626 300 200 315.626 200 388.533V416.667C200 425.87 207.462 433.333 216.667 433.333H583.333C592.537 433.333 600 425.87 600 416.667V388.533C600 315.626 584.373 300 511.467 300H288.533Z" fill="white"/>
<path d="M100 530.827C100 450.54 117.208 433.333 197.493 433.333H602.507C682.793 433.333 700 450.54 700 530.827V602.507C700 682.793 682.793 700 602.507 700H197.493C117.208 700 100 682.793 100 602.507V530.827Z" stroke="white" stroke-width="66.6667"/>
<path d="M200 433.333V388.533C200 315.626 215.626 300 288.533 300H511.467C584.373 300 600 315.626 600 388.533V433.333" stroke="white" stroke-width="66.6667" stroke-linecap="round"/>
<path d="M300 300V233.333" stroke="white" stroke-width="66.6667" stroke-linecap="round" stroke-linejoin="round"/>
<path d="M300 116.667V100" stroke="white" stroke-width="66.6667" stroke-linecap="round" stroke-linejoin="round"/>
<path d="M500 300V233.333" stroke="white" stroke-width="66.6667" stroke-linecap="round" stroke-linejoin="round"/>
<path d="M500 116.667V100" stroke="white" stroke-width="66.6667" stroke-linecap="round" stroke-linejoin="round"/>
<path d="M400 300V233.333" stroke="white" stroke-width="66.6667" stroke-linecap="round" stroke-linejoin="round"/>
<path d="M400 116.667V100" stroke="white" stroke-width="66.6667" stroke-linecap="round" stroke-linejoin="round"/>
<path d="M100 534.657C110.309 533.74 121.282 533.333 133.333 533.333C187.006 533.333 212.994 566.667 266.667 566.667C320.339 566.667 346.327 533.333 400 533.333C453.673 533.333 479.66 566.667 533.333 566.667C587.007 566.667 612.993 533.333 666.667 533.333C678.717 533.333 689.69 533.74 700 534.657" stroke="white" stroke-width="66.6667" stroke-linecap="round" stroke-linejoin="round"/>
<path opacity="0.1" d="M700 542.99C699.757 542.99 699.51 542.98 699.26 542.957C689.253 542.067 678.533 541.667 666.667 541.667C641.68 541.667 623.157 549.343 603.217 557.687L602.853 557.84C583.07 566.12 561.843 575 533.333 575C504.823 575 483.597 566.12 463.813 557.84L463.45 557.687C443.51 549.343 424.987 541.667 400 541.667C375.013 541.667 356.49 549.343 336.55 557.687L336.187 557.84C316.403 566.12 295.178 575 266.667 575C238.155 575 216.931 566.12 197.145 557.84L196.783 557.687C176.842 549.343 158.32 541.667 133.333 541.667C121.466 541.667 110.746 542.067 100.739 542.957C100.491 542.98 100.244 542.99 100 542.99V602.506C100 682.793 117.208 700 197.493 700H602.507C682.793 700 700 682.793 700 602.506V542.99Z" fill="white"/>
</svg>
