<svg width="732" height="775" viewBox="0 0 732 775" fill="none" xmlns="http://www.w3.org/2000/svg">
<path d="M630.127 58.8988H582.52V54.8463C582.52 25.555 558.691 1.7275 529.408 1.7275C500.148 1.7275 476.331 25.5563 476.331 54.8463V58.8988H246.936V53.0762C246.936 23.81 223.121 0 193.86 0C164.575 0 140.747 23.81 140.747 53.0762V58.8988H101.429C45.4962 58.8988 0 107.19 0 166.552V667.346C0 726.709 45.495 775 101.429 775H630.127C686.036 775 731.519 726.709 731.519 667.346V166.552C731.519 107.19 686.036 58.8988 630.127 58.8988ZM501.331 54.8463C501.331 39.3438 513.929 26.7275 529.408 26.7275C544.91 26.7275 557.52 39.3438 557.52 54.8463V93.0912C557.52 108.594 544.91 121.21 529.408 121.21C513.929 121.21 501.331 108.594 501.331 93.0912V54.8463ZM165.747 53.0762C165.747 37.5975 178.357 25 193.86 25C209.339 25 221.936 37.5975 221.936 53.0762V91.3638C221.936 106.843 209.339 119.44 193.86 119.44C178.357 119.44 165.747 106.843 165.747 91.3638V53.0762ZM706.519 667.346C706.519 712.921 672.254 750 630.127 750H101.429C59.29 750 25 712.921 25 667.346V210.815H706.519V667.346ZM706.519 185.815H25.0012V166.552C25.0012 120.977 59.2912 83.8988 101.43 83.8988H140.749V91.3638C140.749 120.63 164.577 144.44 193.861 144.44C223.121 144.44 246.937 120.63 246.937 91.3638V83.8988H476.332V93.0912C476.332 122.383 500.149 146.21 529.409 146.21C558.694 146.21 582.521 122.381 582.521 93.0912V83.8988H630.129C672.255 83.8988 706.52 120.977 706.52 166.552L706.519 185.815Z" fill="white"/>
<path d="M108.655 688.36H237.208H622.864C629.773 688.36 635.364 682.763 635.364 675.86V290.185C635.364 283.283 629.773 277.685 622.864 277.685H108.655C101.746 277.685 96.155 283.283 96.155 290.185V675.86C96.155 682.764 101.746 688.36 108.655 688.36ZM610.365 534.803H506.813V431.244H610.365V534.803ZM481.813 534.803H378.26V431.244H481.813V534.803ZM353.26 534.803H249.708V431.244H353.26V534.803ZM224.708 534.803H121.155V431.244H224.708V534.803ZM121.155 559.803H224.708V663.361H121.155V559.803ZM249.708 559.803H353.26V663.361H249.708V559.803ZM378.26 559.803H481.813V663.361H378.26V559.803ZM610.365 663.36H506.813V559.801H610.365V663.36ZM610.365 406.244H506.813V302.685H610.365V406.244ZM481.813 406.244H378.26V302.685H481.813V406.244ZM353.26 406.244H249.708V302.685H353.26V406.244ZM121.155 302.685H224.708V406.244H121.155V302.685Z" fill="white"/>
</svg>
