<svg width="800" height="800" viewBox="0 0 800 800" fill="none" xmlns="http://www.w3.org/2000/svg">
<g clip-path="url(#clip0_2427_44)">
<path d="M262.512 257.284H189.419C180.408 257.284 173.1 264.59 173.1 273.603C173.1 282.615 180.408 289.922 189.419 289.922H244.147C236.87 318.347 211.039 339.422 180.376 339.422C144.084 339.422 114.559 309.895 114.559 273.604C114.559 237.314 144.086 207.787 180.376 207.787C196.006 207.787 211.155 213.359 223.033 223.476C229.889 229.32 240.194 228.498 246.036 221.636C251.88 214.775 251.055 204.475 244.195 198.633C226.42 183.49 203.756 175.151 180.378 175.151C126.089 175.151 81.9233 219.319 81.9233 273.606C81.9233 327.894 126.089 372.062 180.376 372.062C234.666 372.062 278.831 327.895 278.831 273.608C278.831 264.59 271.525 257.284 262.512 257.284Z" fill="white"/>
<path d="M612.341 0.20459C542.638 0.20459 481.692 38.3562 449.333 94.8452H48.9547C21.9609 94.8452 0 116.806 0 143.8V750.842C0 777.836 21.9609 799.797 48.9547 799.797H655.997C682.991 799.797 704.952 777.836 704.952 750.842V366.741C706.819 364.541 708.684 362.325 710.556 360.076C769.908 288.741 800 230.719 800 187.617C800 84.2765 715.816 0.20459 612.341 0.20459ZM32.6359 143.8C32.6359 134.801 39.9562 127.481 48.9547 127.481H434.591C428.167 146.364 424.683 166.591 424.683 187.617C424.683 208.681 431.889 233.317 446.167 261.322L32.6359 674.851V143.8ZM48.9547 767.159C39.9562 767.159 32.6359 759.839 32.6359 750.84V721.006L462.948 290.692C473.584 307.598 486.439 325.544 501.464 344.483L78.7891 767.159H48.9547ZM124.945 767.159L350.948 541.156L576.95 767.159H124.945ZM672.316 750.84C672.316 759.839 664.995 767.159 655.997 767.159H623.108L374.028 518.076L420.181 471.923L672.316 724.059V750.84ZM672.316 677.903L443.259 448.845L522.317 369.787C562.366 416.633 599.584 451.223 601.252 452.769C604.38 455.666 608.358 457.114 612.339 457.114C616.32 457.114 620.298 455.666 623.427 452.769C624.663 451.625 645.386 432.361 672.312 403.433V677.903H672.316ZM612.337 418.29C560.533 368.012 457.317 254.106 457.317 187.617C457.317 102.273 526.861 32.8405 612.341 32.8405C697.82 32.8405 767.364 102.273 767.364 187.617C767.364 254.047 664.144 367.99 612.337 418.29Z" fill="white"/>
<path d="M612.341 96.8174C562.269 96.8174 521.533 137.477 521.533 187.455C521.533 237.433 562.267 278.094 612.341 278.094C662.414 278.094 703.155 237.433 703.155 187.455C703.155 137.477 662.414 96.8174 612.341 96.8174ZM612.341 245.458C580.266 245.458 554.17 219.439 554.17 187.455C554.17 155.472 580.266 129.453 612.341 129.453C644.42 129.453 670.519 155.472 670.519 187.455C670.519 219.439 644.42 245.458 612.341 245.458Z" fill="white"/>
<path d="M456.876 700.255H449.57C440.559 700.255 433.251 707.561 433.251 716.574C433.251 725.586 440.558 732.892 449.57 732.892H456.876C465.889 732.892 473.195 725.586 473.195 716.574C473.195 707.561 465.889 700.255 456.876 700.255Z" fill="white"/>
<path d="M396.778 700.255H238.278C229.267 700.255 221.959 707.561 221.959 716.574C221.959 725.586 229.267 732.892 238.278 732.892H396.778C405.789 732.892 413.097 725.586 413.097 716.574C413.097 707.561 405.789 700.255 396.778 700.255Z" fill="white"/>
</g>
<defs>
<clipPath id="clip0_2427_44">
<rect width="800" height="800" fill="white"/>
</clipPath>
</defs>
</svg>
