<svg width="800" height="800" viewBox="0 0 800 800" fill="none" xmlns="http://www.w3.org/2000/svg">
<path d="M666.667 100C675.507 100 683.986 96.4883 690.237 90.2371C696.488 83.9858 700 75.5074 700 66.6668C700 57.8263 696.488 49.3478 690.237 43.0966C683.986 36.8454 675.507 33.3335 666.667 33.3335H133.333C124.493 33.3335 116.014 36.8454 109.763 43.0966C103.512 49.3478 100 57.8263 100 66.6668C100 75.5074 103.512 83.9858 109.763 90.2371C116.014 96.4883 124.493 100 133.333 100H168.3C173.167 161.2 193.067 291.667 274.767 366.667C188.6 450.367 171.067 624.467 167.567 700H133.333C124.493 700 116.014 703.512 109.763 709.763C103.512 716.014 100 724.493 100 733.333C100 742.174 103.512 750.653 109.763 756.904C116.014 763.155 124.493 766.667 133.333 766.667H666.667C675.507 766.667 683.986 763.155 690.237 756.904C696.488 750.653 700 742.174 700 733.333C700 724.493 696.488 716.014 690.237 709.763C683.986 703.512 675.507 700 666.667 700H632.433C628.933 624.533 611.4 450.433 525.233 366.667C606.933 291.6 626.833 161.133 631.7 100H666.667ZM452.667 337.533C447.371 340.474 442.977 344.803 439.957 350.053C436.936 355.304 435.404 361.278 435.524 367.335C435.644 373.391 437.412 379.3 440.637 384.427C443.863 389.554 448.425 393.705 453.833 396.433C535.067 437.367 560.5 606.8 565.667 700H234.333C239.367 606.667 264.933 437.367 346.167 396.433C351.575 393.705 356.137 389.554 359.362 384.427C362.588 379.3 364.356 373.391 364.476 367.335C364.596 361.278 363.064 355.304 360.043 350.053C357.023 344.803 352.629 340.474 347.333 337.533C262.7 290.567 240.9 161.467 235.267 100H564.733C559.1 161.467 537.3 290.567 452.667 337.533ZM400 433.333C400 433.333 500 513.333 500 553.333V666.667H300V553.333C300 513.333 400 433.333 400 433.333Z" fill="white"/>
</svg>
