<svg width="667" height="667" viewBox="0 0 667 667" fill="none" xmlns="http://www.w3.org/2000/svg">
<path fill-rule="evenodd" clip-rule="evenodd" d="M333.333 666.667C517.438 666.667 666.667 517.438 666.667 333.333C666.667 149.228 517.438 0 333.333 0C149.228 0 0 149.228 0 333.333C0 517.438 149.228 666.667 333.333 666.667ZM333.333 33.3333C499.028 33.3333 633.333 167.638 633.333 333.333C633.333 499.028 499.028 633.333 333.333 633.333C167.638 633.333 33.3333 499.028 33.3333 333.333C33.3333 167.638 167.638 33.3333 333.333 33.3333ZM83.3333 350H116.667C125.872 350 133.333 342.538 133.333 333.333C133.333 324.128 125.872 316.667 116.667 316.667H83.3333C74.1287 316.667 66.6667 324.128 66.6667 333.333C66.6667 342.538 74.1287 350 83.3333 350ZM583.333 350H550C540.795 350 533.333 342.538 533.333 333.333C533.333 324.128 540.795 316.667 550 316.667H583.333C592.538 316.667 600 324.128 600 333.333C600 342.538 592.538 350 583.333 350ZM316.667 83.3333V116.667C316.667 125.872 324.128 133.333 333.333 133.333C342.538 133.333 350 125.872 350 116.667V83.3333C350 74.1287 342.538 66.6667 333.333 66.6667C324.128 66.6667 316.667 74.1287 316.667 83.3333ZM316.667 583.333V550C316.667 540.795 324.128 533.333 333.333 533.333C342.538 533.333 350 540.795 350 550V583.333C350 592.538 342.538 600 333.333 600C324.128 600 316.667 592.538 316.667 583.333ZM348.78 338.565C347.647 342.613 344.992 346.238 341.065 348.507L241.83 405.807C233.86 410.41 223.667 407.678 219.063 399.708C214.46 391.737 217.192 381.543 225.163 376.94L319.077 322.712L368.598 186.602C371.745 177.952 381.308 173.49 389.958 176.638C398.608 179.785 403.07 189.348 399.922 197.998L348.78 338.565Z" fill="white"/>
</svg>
