<svg width="800" height="800" viewBox="0 0 800 800" fill="none" xmlns="http://www.w3.org/2000/svg">
<path d="M425 416.933L708.333 303.6V492.03C691.497 481.25 671.477 475 650 475C590.17 475 541.667 523.503 541.667 583.333C541.667 643.163 590.17 691.667 650 691.667C709.83 691.667 758.333 643.163 758.333 583.333V264.875C758.333 226.781 758.333 194.832 755.653 169.377C755.273 165.78 754.827 162.203 754.333 158.866C751.75 141.475 747.187 125.252 738.38 111.705C733.977 104.931 728.51 98.8269 721.703 93.5796C720.427 92.5959 719.1 91.6422 717.73 90.7199L717.453 90.5359C693.88 74.8466 667.377 75.9686 640.077 82.9256C613.673 89.6536 580.94 103.355 540.8 120.156L471 149.372C452.183 157.246 436.243 163.917 423.733 170.827C410.42 178.178 398.953 186.849 390.353 199.77C381.757 212.692 378.183 226.617 376.543 241.735C375 255.944 375 273.224 375 293.619V558.697C358.16 547.917 338.143 541.667 316.667 541.667C256.836 541.667 208.333 590.17 208.333 650C208.333 709.83 256.836 758.333 316.667 758.333C376.497 758.333 425 709.83 425 650V416.933Z" fill="white"/>
<path d="M258.333 66.6667C258.333 52.8597 247.14 41.6667 233.333 41.6667C219.526 41.6667 208.333 52.8597 208.333 66.6667V258.697C191.495 247.917 171.477 241.667 150 241.667C90.169 241.667 41.6666 290.169 41.6666 350C41.6666 409.83 90.169 458.333 150 458.333C209.831 458.333 258.333 409.83 258.333 350V166.817C281.617 183.638 309.318 191.667 333.333 191.667C347.14 191.667 358.333 180.474 358.333 166.667C358.333 152.86 347.14 141.667 333.333 141.667C318.188 141.667 298.877 135.796 283.72 123.279C269.28 111.354 258.333 93.2617 258.333 66.6667Z" fill="white"/>
</svg>
